# xmcd
#
# Track frame offsets: 
#        150
#        20256
#        44444
#        65613
#        93758
#        127047
#        149046
#        169492
#
# Disc length: 2640 seconds
#
# Revision: 1
# Processed by: cddbd v1.5.2PL0 Copyright (c) Steve Scherf et al.
# Submitted via: ExactAudioCopy v0.99pb5
#
DISCID=740a4e08
DTITLE=Wes Montgomery - The Incredible Jazz Guitar of Wes Montgomery
DYEAR=1960
DGENRE=Jazz
TTITLE0=Airegin
TTITLE1=D-Natural Blues
TTITLE2=Polka Dots and Moonbeams
TTITLE3=Four on Six
TTITLE4=West Coast Blues
TTITLE5=In Your Own Sweet Way
TTITLE6=Mr. Walker
TTITLE7=Gone with the Wind
EXTD=YEAR: 1960
EXTT0=
EXTT1=
EXTT2=
EXTT3=
EXTT4=
EXTT5=
EXTT6=
EXTT7=
PLAYORDER=
